<svg width="180" height="180" viewBox="0 0 72 58" fill="none" xmlns="http://www.w3.org/2000/svg">
<g filter="url(#filter0_bd_94_2805)">
<mask id="path-1-outside-1_94_2805" maskUnits="userSpaceOnUse" x="34.2461" y="11" width="23" height="19" fill="black">
<rect fill="white" x="34.2461" y="11" width="23" height="19"/>
<path fill-rule="evenodd" clip-rule="evenodd" d="M49.78 19.5685C49.78 19.7978 49.7707 20.0243 49.7527 20.2476C50.309 19.6325 51.0356 19.2602 51.8305 19.2602C53.5808 19.2602 54.9996 21.0651 54.9996 23.2914C54.9996 25.5178 53.5808 27.3226 51.8305 27.3226C51.8298 27.3226 51.8291 27.3226 51.8283 27.3226H39.5116C39.5105 27.3226 39.5094 27.3226 39.5084 27.3226C39.5073 27.3226 39.5063 27.3226 39.5052 27.3226H39.4897V27.3226C37.6966 27.3098 36.2461 25.4568 36.2461 23.1729C36.2461 20.8973 37.686 19.0495 39.47 19.0234C39.6878 15.6507 41.9087 13 44.6162 13C47.4681 13 49.78 15.9408 49.78 19.5685Z"/>
</mask>
<path fill-rule="evenodd" clip-rule="evenodd" d="M49.78 19.5685C49.78 19.7978 49.7707 20.0243 49.7527 20.2476C50.309 19.6325 51.0356 19.2602 51.8305 19.2602C53.5808 19.2602 54.9996 21.0651 54.9996 23.2914C54.9996 25.5178 53.5808 27.3226 51.8305 27.3226C51.8298 27.3226 51.8291 27.3226 51.8283 27.3226H39.5116C39.5105 27.3226 39.5094 27.3226 39.5084 27.3226C39.5073 27.3226 39.5063 27.3226 39.5052 27.3226H39.4897V27.3226C37.6966 27.3098 36.2461 25.4568 36.2461 23.1729C36.2461 20.8973 37.686 19.0495 39.47 19.0234C39.6878 15.6507 41.9087 13 44.6162 13C47.4681 13 49.78 15.9408 49.78 19.5685Z" fill="url(#paint0_linear_94_2805)" shape-rendering="crispEdges"/>
<path d="M49.7527 20.2476L47.7592 20.0866L47.2852 25.9568L51.2359 21.5892L49.7527 20.2476ZM39.4897 27.3226H37.4897V29.3226H39.4897V27.3226ZM39.4897 27.3226H41.4897V25.3367L39.504 25.3226L39.4897 27.3226ZM39.47 19.0234L39.4993 21.0232L41.3468 20.9961L41.4658 19.1523L39.47 19.0234ZM51.7462 20.4085C51.7686 20.1317 51.78 19.8515 51.78 19.5685H47.78C47.78 19.7441 47.7729 19.9169 47.7592 20.0866L51.7462 20.4085ZM51.8305 17.2602C50.3758 17.2602 49.1365 17.9474 48.2695 18.9059L51.2359 21.5892C51.4815 21.3177 51.6954 21.2602 51.8305 21.2602V17.2602ZM56.9996 23.2914C56.9996 20.4356 55.107 17.2602 51.8305 17.2602V21.2602C51.9749 21.2602 52.2259 21.3294 52.4991 21.677C52.7748 22.0277 52.9996 22.5918 52.9996 23.2914H56.9996ZM51.8305 29.3226C55.107 29.3226 56.9996 26.1473 56.9996 23.2914H52.9996C52.9996 23.9911 52.7748 24.5552 52.4991 24.9059C52.2259 25.2534 51.9749 25.3226 51.8305 25.3226V29.3226ZM51.8283 29.3226C51.828 29.3226 51.8277 29.3226 51.8281 29.3226C51.8284 29.3226 51.8294 29.3226 51.8305 29.3226V25.3226C51.8309 25.3226 51.8312 25.3226 51.8307 25.3226C51.8305 25.3226 51.8295 25.3226 51.8283 25.3226V29.3226ZM51.8283 25.3226H39.5116V29.3226H51.8283V25.3226ZM39.5084 29.3226C39.51 29.3226 39.5114 29.3226 39.5118 29.3226C39.5125 29.3226 39.5121 29.3226 39.5116 29.3226V25.3226C39.51 25.3226 39.5085 25.3226 39.5082 25.3226C39.5075 25.3226 39.5079 25.3226 39.5084 25.3226V29.3226ZM39.5052 29.3226C39.5047 29.3226 39.5043 29.3226 39.505 29.3226C39.5054 29.3226 39.5068 29.3226 39.5084 29.3226V25.3226C39.5089 25.3226 39.5093 25.3226 39.5086 25.3226C39.5082 25.3226 39.5068 25.3226 39.5052 25.3226V29.3226ZM39.5052 25.3226H39.4897V29.3226H39.5052V25.3226ZM41.4897 27.3226V27.3226H37.4897V27.3226H41.4897ZM34.2461 23.1729C34.2461 26.0864 36.1668 29.299 39.4755 29.3225L39.504 25.3226C39.3345 25.3214 39.0601 25.2371 38.771 24.8674C38.4797 24.4949 38.2461 23.9026 38.2461 23.1729H34.2461ZM39.4407 17.0236C36.1523 17.0718 34.2461 20.2676 34.2461 23.1729H38.2461C38.2461 22.4459 38.4779 21.8552 38.7678 21.4824C39.056 21.1119 39.3304 21.0256 39.4993 21.0232L39.4407 17.0236ZM44.6162 11C40.4651 11 37.7316 14.9079 37.4742 18.8945L41.4658 19.1523C41.644 16.3936 43.3522 15 44.6162 15V11ZM51.78 19.5685C51.78 15.3113 48.9942 11 44.6162 11V15C45.9419 15 47.78 16.5703 47.78 19.5685H51.78Z" fill="url(#paint1_linear_94_2805)" mask="url(#path-1-outside-1_94_2805)"/>
</g>
<g filter="url(#filter1_bd_94_2805)">
<mask id="path-3-outside-2_94_2805" maskUnits="userSpaceOnUse" x="15" y="11.3145" width="35" height="28" fill="black">
<rect fill="white" x="15" y="11.3145" width="35" height="28"/>
<path fill-rule="evenodd" clip-rule="evenodd" d="M39.3169 24.1767C39.3169 24.5559 39.3017 24.9305 39.272 25.2997C40.1894 24.2826 41.3875 23.6669 42.6983 23.6669C45.5844 23.6669 47.924 26.6515 47.924 30.3333C47.924 34.015 45.5844 36.9996 42.6983 36.9996H22.3835C22.3821 36.9996 22.3808 36.9996 22.3794 36.9996C22.3781 36.9996 22.3767 36.9996 22.3754 36.9996H22.3487V36.9995C19.3919 36.9784 17 33.9141 17 30.1372C17 26.3741 19.3743 23.3185 22.3161 23.2752C22.6753 17.6979 26.3374 13.3145 30.8021 13.3145C35.5047 13.3145 39.3169 18.1776 39.3169 24.1767Z"/>
</mask>
<path fill-rule="evenodd" clip-rule="evenodd" d="M39.3169 24.1767C39.3169 24.5559 39.3017 24.9305 39.272 25.2997C40.1894 24.2826 41.3875 23.6669 42.6983 23.6669C45.5844 23.6669 47.924 26.6515 47.924 30.3333C47.924 34.015 45.5844 36.9996 42.6983 36.9996H22.3835C22.3821 36.9996 22.3808 36.9996 22.3794 36.9996C22.3781 36.9996 22.3767 36.9996 22.3754 36.9996H22.3487V36.9995C19.3919 36.9784 17 33.9141 17 30.1372C17 26.3741 19.3743 23.3185 22.3161 23.2752C22.6753 17.6979 26.3374 13.3145 30.8021 13.3145C35.5047 13.3145 39.3169 18.1776 39.3169 24.1767Z" fill="url(#paint2_linear_94_2805)" shape-rendering="crispEdges"/>
<path d="M39.272 25.2997L37.2784 25.1392L36.8049 31.021L40.7571 26.6392L39.272 25.2997ZM22.3487 36.9996H20.3487V38.9996H22.3487V36.9996ZM22.3487 36.9995H24.3487V35.0137L22.363 34.9996L22.3487 36.9995ZM22.3161 23.2752L22.3455 25.275L24.1932 25.2478L24.312 23.4038L22.3161 23.2752ZM41.2655 25.4602C41.2996 25.0376 41.3169 24.6094 41.3169 24.1767H37.3169C37.3169 24.5023 37.3039 24.8234 37.2784 25.1392L41.2655 25.4602ZM42.6983 21.6669C40.7255 21.6669 39.0142 22.5994 37.7869 23.9601L40.7571 26.6392C41.3645 25.9659 42.0494 25.6669 42.6983 25.6669V21.6669ZM49.924 30.3333C49.924 26.0279 47.1151 21.6669 42.6983 21.6669V25.6669C44.0536 25.6669 45.924 27.2752 45.924 30.3333H49.924ZM42.6983 38.9996C47.1151 38.9996 49.924 34.6387 49.924 30.3333H45.924C45.924 33.3913 44.0536 34.9996 42.6983 34.9996V38.9996ZM42.6983 34.9996H22.3835V38.9996H42.6983V34.9996ZM22.3794 38.9996C22.3809 38.9996 22.3823 38.9996 22.3829 38.9996C22.3837 38.9996 22.3836 38.9996 22.3835 38.9996V34.9996C22.382 34.9996 22.3806 34.9996 22.38 34.9996C22.3792 34.9996 22.3793 34.9996 22.3794 34.9996V38.9996ZM22.3754 38.9996C22.3752 38.9996 22.3752 38.9996 22.376 38.9996C22.3765 38.9996 22.3779 38.9996 22.3794 38.9996V34.9996C22.3796 34.9996 22.3796 34.9996 22.3788 34.9996C22.3783 34.9996 22.3769 34.9996 22.3754 34.9996V38.9996ZM22.3754 34.9996H22.3487V38.9996H22.3754V34.9996ZM24.3487 36.9996V36.9995H20.3487V36.9996H24.3487ZM15 30.1372C15 34.538 17.8575 38.9675 22.3344 38.9995L22.363 34.9996C20.9262 34.9893 19 33.2903 19 30.1372H15ZM22.2867 21.2755C17.8361 21.3409 15 25.7501 15 30.1372H19C19 26.9982 20.9125 25.2961 22.3455 25.275L22.2867 21.2755ZM30.8021 11.3145C24.8894 11.3145 20.7186 16.9607 20.3202 23.1467L24.312 23.4038C24.632 18.4352 27.7854 15.3145 30.8021 15.3145V11.3145ZM41.3169 24.1767C41.3169 17.554 37.0354 11.3145 30.8021 11.3145V15.3145C33.974 15.3145 37.3169 18.8013 37.3169 24.1767H41.3169Z" fill="url(#paint3_linear_94_2805)" mask="url(#path-3-outside-2_94_2805)"/>
</g>
<defs>
<filter id="filter0_bd_94_2805" x="19.2461" y="0" width="52.7535" height="48.3223" filterUnits="userSpaceOnUse" color-interpolation-filters="sRGB">
<feFlood flood-opacity="0" result="BackgroundImageFix"/>
<feGaussianBlur in="BackgroundImageFix" stdDeviation="5"/>
<feComposite in2="SourceAlpha" operator="in" result="effect1_backgroundBlur_94_2805"/>
<feColorMatrix in="SourceAlpha" type="matrix" values="0 0 0 0 0 0 0 0 0 0 0 0 0 0 0 0 0 0 127 0" result="hardAlpha"/>
<feOffset dy="4"/>
<feGaussianBlur stdDeviation="7.5"/>
<feComposite in2="hardAlpha" operator="out"/>
<feColorMatrix type="matrix" values="0 0 0 0 0 0 0 0 0 0 0 0 0 0 0 0 0 0 0.1 0"/>
<feBlend mode="normal" in2="effect1_backgroundBlur_94_2805" result="effect2_dropShadow_94_2805"/>
<feBlend mode="normal" in="SourceGraphic" in2="effect2_dropShadow_94_2805" result="shape"/>
</filter>
<filter id="filter1_bd_94_2805" x="0" y="0.314453" width="64.924" height="57.6855" filterUnits="userSpaceOnUse" color-interpolation-filters="sRGB">
<feFlood flood-opacity="0" result="BackgroundImageFix"/>
<feGaussianBlur in="BackgroundImageFix" stdDeviation="5"/>
<feComposite in2="SourceAlpha" operator="in" result="effect1_backgroundBlur_94_2805"/>
<feColorMatrix in="SourceAlpha" type="matrix" values="0 0 0 0 0 0 0 0 0 0 0 0 0 0 0 0 0 0 127 0" result="hardAlpha"/>
<feOffset dy="4"/>
<feGaussianBlur stdDeviation="7.5"/>
<feComposite in2="hardAlpha" operator="out"/>
<feColorMatrix type="matrix" values="0 0 0 0 0 0 0 0 0 0 0 0 0 0 0 0 0 0 0.1 0"/>
<feBlend mode="normal" in2="effect1_backgroundBlur_94_2805" result="effect2_dropShadow_94_2805"/>
<feBlend mode="normal" in="SourceGraphic" in2="effect2_dropShadow_94_2805" result="shape"/>
</filter>
<linearGradient id="paint0_linear_94_2805" x1="42.0749" y1="12.9403" x2="48.8068" y2="26.2599" gradientUnits="userSpaceOnUse">
<stop stop-color="white"/>
<stop offset="0.708333" stop-color="#9DDCFF" stop-opacity="0.69"/>
</linearGradient>
<linearGradient id="paint1_linear_94_2805" x1="45.0146" y1="8.04028" x2="54.568" y2="31.8534" gradientUnits="userSpaceOnUse">
<stop stop-color="white"/>
<stop offset="0.713542" stop-color="#85C6EC" stop-opacity="0.71"/>
</linearGradient>
<linearGradient id="paint2_linear_94_2805" x1="26.6115" y1="13.2157" x2="37.7628" y2="35.2166" gradientUnits="userSpaceOnUse">
<stop stop-color="white"/>
<stop offset="0.708333" stop-color="#9DDCFF" stop-opacity="0.69"/>
</linearGradient>
<linearGradient id="paint3_linear_94_2805" x1="31.4591" y1="5.11261" x2="47.2901" y2="44.4609" gradientUnits="userSpaceOnUse">
<stop stop-color="white"/>
<stop offset="0.713542" stop-color="#85C6EC" stop-opacity="0.71"/>
</linearGradient>
</defs>
</svg>
