<svg width="296" height="209" viewBox="0 0 296 209" fill="none" xmlns="http://www.w3.org/2000/svg">
<circle cx="204.713" cy="91.0747" r="56.437" fill="url(#paint0_linear_94_2767)" stroke="url(#paint1_linear_94_2767)" stroke-width="2"/>
<path fill-rule="evenodd" clip-rule="evenodd" d="M204.713 0C201.979 0 199.763 2.21607 199.763 4.94973V20.7889C199.763 23.5225 201.979 25.7386 204.713 25.7386C207.446 25.7386 209.662 23.5225 209.662 20.7889V4.94973C209.662 2.21607 207.446 0 204.713 0ZM204.713 156.412C201.979 156.412 199.763 158.628 199.763 161.361V177.2C199.763 179.934 201.979 182.15 204.713 182.15C207.446 182.15 209.662 179.934 209.662 177.2V161.361C209.662 158.628 207.446 156.412 204.713 156.412ZM243.489 14.0134C244.856 11.646 247.883 10.8349 250.25 12.2017C252.618 13.5685 253.429 16.5958 252.062 18.9632L244.142 32.6803C242.776 35.0477 239.748 35.8588 237.381 34.492C235.014 33.1252 234.202 30.098 235.569 27.7305L243.489 14.0134ZM172.044 147.658C169.677 146.291 166.65 147.102 165.283 149.47L157.363 163.187C155.997 165.554 156.808 168.582 159.175 169.948C161.543 171.315 164.57 170.504 165.937 168.137L173.856 154.42C175.223 152.052 174.412 149.025 172.044 147.658ZM276.825 43.7258C279.192 42.3589 282.219 43.1701 283.586 45.5375C284.953 47.9049 284.142 50.9321 281.774 52.299L268.057 60.2185C265.69 61.5854 262.663 60.7742 261.296 58.4068C259.929 56.0394 260.74 53.0122 263.107 51.6453L276.825 43.7258ZM148.13 123.743C146.763 121.376 143.736 120.565 141.368 121.932L127.651 129.851C125.284 131.218 124.473 134.245 125.839 136.613C127.206 138.98 130.233 139.791 132.601 138.424L146.318 130.505C148.685 129.138 149.497 126.111 148.13 123.743ZM290.838 86.1253C293.572 86.1253 295.788 88.3414 295.788 91.075C295.788 93.8087 293.572 96.0248 290.838 96.0248H274.999C272.265 96.0248 270.049 93.8087 270.049 91.075C270.049 88.3414 272.265 86.1253 274.999 86.1253H290.838ZM139.376 91.075C139.376 88.3414 137.16 86.1253 134.427 86.1253H118.587C115.854 86.1253 113.638 88.3414 113.638 91.075C113.638 93.8087 115.854 96.0248 118.587 96.0248H134.427C137.16 96.0248 139.376 93.8087 139.376 91.075ZM281.774 129.851C284.142 131.218 284.953 134.245 283.586 136.613C282.219 138.98 279.192 139.791 276.825 138.424L263.108 130.505C260.74 129.138 259.929 126.111 261.296 123.743C262.663 121.376 265.69 120.565 268.057 121.932L281.774 129.851ZM148.13 58.4068C149.497 56.0394 148.685 53.0122 146.318 51.6453L132.601 43.7258C130.233 42.3589 127.206 43.1701 125.839 45.5375C124.473 47.9049 125.284 50.9321 127.651 52.299L141.368 60.2185C143.736 61.5854 146.763 60.7742 148.13 58.4068ZM252.062 163.187C253.429 165.554 252.618 168.581 250.25 169.948C247.883 171.315 244.856 170.504 243.489 168.137L235.569 154.42C234.202 152.052 235.014 149.025 237.381 147.658C239.748 146.291 242.776 147.102 244.142 149.47L252.062 163.187ZM172.044 34.492C174.412 33.1251 175.223 30.0979 173.856 27.7305L165.937 14.0134C164.57 11.646 161.543 10.8348 159.175 12.2017C156.808 13.5685 155.997 16.5957 157.363 18.9631L165.283 32.6802C166.65 35.0476 169.677 35.8588 172.044 34.492Z" fill="url(#paint2_linear_94_2767)"/>
<g filter="url(#filter0_bd_94_2767)">
<mask id="path-3-outside-1_94_2767" maskUnits="userSpaceOnUse" x="13" y="33" width="258" height="157" fill="black">
<rect fill="white" x="13" y="33" width="258" height="157"/>
<path fill-rule="evenodd" clip-rule="evenodd" d="M198.043 104.839C198.043 107.276 197.918 109.685 197.674 112.059C205.198 105.52 215.025 101.561 225.776 101.561C249.448 101.561 268.637 120.751 268.637 144.422C268.637 168.094 249.448 187.283 225.776 187.283H59.1589C59.1465 187.283 59.1342 187.283 59.1218 187.283C59.1094 187.283 59.0971 187.283 59.0847 187.283H58.8697V187.283C34.6179 187.147 15 167.445 15 143.161C15 118.967 34.474 99.3209 58.6025 99.0427C61.5485 63.1835 91.5849 35 128.204 35C166.775 35 198.043 66.2678 198.043 104.839Z"/>
</mask>
<path fill-rule="evenodd" clip-rule="evenodd" d="M198.043 104.839C198.043 107.276 197.918 109.685 197.674 112.059C205.198 105.52 215.025 101.561 225.776 101.561C249.448 101.561 268.637 120.751 268.637 144.422C268.637 168.094 249.448 187.283 225.776 187.283H59.1589C59.1465 187.283 59.1342 187.283 59.1218 187.283C59.1094 187.283 59.0971 187.283 59.0847 187.283H58.8697V187.283C34.6179 187.147 15 167.445 15 143.161C15 118.967 34.474 99.3209 58.6025 99.0427C61.5485 63.1835 91.5849 35 128.204 35C166.775 35 198.043 66.2678 198.043 104.839Z" fill="url(#paint3_linear_94_2767)" shape-rendering="crispEdges"/>
<path d="M197.674 112.059L195.684 111.854L195.167 116.887L198.986 113.568L197.674 112.059ZM58.8697 187.283H56.8697V189.283H58.8697V187.283ZM58.8697 187.283H60.8697V185.294L58.8809 185.283L58.8697 187.283ZM58.6025 99.0427L58.6256 101.043L60.4467 101.022L60.5958 99.2064L58.6025 99.0427ZM199.663 112.263C199.914 109.822 200.043 107.345 200.043 104.839H196.043C196.043 107.208 195.921 109.549 195.684 111.854L199.663 112.263ZM225.776 99.5609C214.525 99.5609 204.236 103.706 196.362 110.549L198.986 113.568C206.16 107.333 215.525 103.561 225.776 103.561V99.5609ZM270.637 144.422C270.637 119.646 250.552 99.5609 225.776 99.5609V103.561C248.343 103.561 266.637 121.855 266.637 144.422H270.637ZM225.776 189.283C250.552 189.283 270.637 169.198 270.637 144.422H266.637C266.637 166.989 248.343 185.283 225.776 185.283V189.283ZM225.776 185.283H59.1589V189.283H225.776V185.283ZM59.1218 189.283C59.1287 189.283 59.1355 189.283 59.1416 189.283C59.1479 189.283 59.1534 189.283 59.1589 189.283V185.283C59.152 185.283 59.1452 185.283 59.1391 185.283C59.1328 185.283 59.1273 185.283 59.1218 185.283V189.283ZM59.0847 189.283C59.0902 189.283 59.0957 189.283 59.102 189.283C59.1081 189.283 59.1149 189.283 59.1218 189.283V185.283C59.1164 185.283 59.1108 185.283 59.1045 185.283C59.0984 185.283 59.0916 185.283 59.0847 185.283V189.283ZM59.0847 185.283H58.8697V189.283H59.0847V185.283ZM60.8697 187.283V187.283H56.8697V187.283H60.8697ZM13 143.161C13 168.546 33.5071 189.141 58.8585 189.283L58.8809 185.283C35.7287 185.153 17 166.344 17 143.161H13ZM58.5794 97.0428C33.3567 97.3337 13 117.87 13 143.161H17C17 120.064 35.5913 101.308 58.6256 101.043L58.5794 97.0428ZM128.204 33C90.5352 33 59.6397 61.9908 56.6092 98.8789L60.5958 99.2064C63.4572 64.3763 92.6346 37 128.204 37V33ZM200.043 104.839C200.043 65.1632 167.879 33 128.204 33V37C165.67 37 196.043 67.3723 196.043 104.839H200.043Z" fill="url(#paint4_linear_94_2767)" mask="url(#path-3-outside-1_94_2767)"/>
</g>
<defs>
<filter id="filter0_bd_94_2767" x="-2" y="22" width="287.637" height="186.283" filterUnits="userSpaceOnUse" color-interpolation-filters="sRGB">
<feFlood flood-opacity="0" result="BackgroundImageFix"/>
<feGaussianBlur in="BackgroundImageFix" stdDeviation="5"/>
<feComposite in2="SourceAlpha" operator="in" result="effect1_backgroundBlur_94_2767"/>
<feColorMatrix in="SourceAlpha" type="matrix" values="0 0 0 0 0 0 0 0 0 0 0 0 0 0 0 0 0 0 127 0" result="hardAlpha"/>
<feOffset dy="4"/>
<feGaussianBlur stdDeviation="7.5"/>
<feComposite in2="hardAlpha" operator="out"/>
<feColorMatrix type="matrix" values="0 0 0 0 0 0 0 0 0 0 0 0 0 0 0 0 0 0 0.1 0"/>
<feBlend mode="normal" in2="effect1_backgroundBlur_94_2767" result="effect2_dropShadow_94_2767"/>
<feBlend mode="normal" in="SourceGraphic" in2="effect2_dropShadow_94_2767" result="shape"/>
</filter>
<linearGradient id="paint0_linear_94_2767" x1="235.896" y1="43.5573" x2="185.579" y2="146.944" gradientUnits="userSpaceOnUse">
<stop offset="0.182844" stop-color="#FFE600"/>
<stop offset="0.980542" stop-color="#F09000"/>
</linearGradient>
<linearGradient id="paint1_linear_94_2767" x1="176.395" y1="22.9597" x2="254.46" y2="210.467" gradientUnits="userSpaceOnUse">
<stop stop-color="#FFE600"/>
<stop offset="1" stop-color="#9C8D00"/>
</linearGradient>
<linearGradient id="paint2_linear_94_2767" x1="271.534" y1="23.7587" x2="136.406" y2="182.15" gradientUnits="userSpaceOnUse">
<stop stop-color="#FFE600"/>
<stop offset="1" stop-color="#AA9900"/>
</linearGradient>
<linearGradient id="paint3_linear_94_2767" x1="93.8333" y1="34.365" x2="154.843" y2="187.918" gradientUnits="userSpaceOnUse">
<stop stop-color="white"/>
<stop offset="0.708333" stop-color="#9DDCFF" stop-opacity="0.69"/>
</linearGradient>
<linearGradient id="paint4_linear_94_2767" x1="133.593" y1="-17.7335" x2="217.91" y2="249.614" gradientUnits="userSpaceOnUse">
<stop stop-color="white"/>
<stop offset="0.713542" stop-color="#85C6EC" stop-opacity="0.71"/>
</linearGradient>
</defs>
</svg>
